{
	"patcher" : 	{
		"fileversion" : 1,
		"rect" : [ 210.0, 311.0, 720.0, 421.0 ],
		"bglocked" : 0,
		"defrect" : [ 210.0, 311.0, 720.0, 421.0 ],
		"openrect" : [ 0.0, 0.0, 0.0, 0.0 ],
		"openinpresentation" : 0,
		"default_fontsize" : 12.0,
		"default_fontface" : 0,
		"default_fontname" : "Arial",
		"gridonopen" : 0,
		"gridsize" : [ 15.0, 15.0 ],
		"gridsnaponopen" : 0,
		"toolbarvisible" : 1,
		"boxanimatetime" : 200,
		"imprint" : 0,
		"enablehscroll" : 1,
		"enablevscroll" : 1,
		"boxes" : [ 			{
				"box" : 				{
					"maxclass" : "newobj",
					"text" : "adstatus switch",
					"id" : "obj-50",
					"numinlets" : 2,
					"fontname" : "Arial",
					"numoutlets" : 2,
					"outlettype" : [ "", "int" ],
					"fontsize" : 11.595187,
					"patching_rect" : [ 599.728699, 233.637772, 90.0, 20.0 ]
				}

			}
, 			{
				"box" : 				{
					"maxclass" : "newobj",
					"text" : "r dspactive",
					"id" : "obj-3",
					"numinlets" : 0,
					"fontname" : "Arial",
					"numoutlets" : 1,
					"outlettype" : [ "" ],
					"fontsize" : 12.0,
					"patching_rect" : [ 600.0, 201.0, 69.0, 20.0 ]
				}

			}
, 			{
				"box" : 				{
					"maxclass" : "newobj",
					"text" : "p dsp",
					"id" : "obj-8",
					"numinlets" : 1,
					"fontname" : "Arial",
					"numoutlets" : 1,
					"hidden" : 1,
					"outlettype" : [ "" ],
					"fontsize" : 12.0,
					"patching_rect" : [ 534.262329, 343.0, 40.0, 20.0 ],
					"patcher" : 					{
						"fileversion" : 1,
						"rect" : [ 0.0, 0.0, 640.0, 480.0 ],
						"bglocked" : 0,
						"defrect" : [ 0.0, 0.0, 640.0, 480.0 ],
						"openrect" : [ 0.0, 0.0, 0.0, 0.0 ],
						"openinpresentation" : 0,
						"default_fontsize" : 12.0,
						"default_fontface" : 0,
						"default_fontname" : "Arial",
						"gridonopen" : 0,
						"gridsize" : [ 15.0, 15.0 ],
						"gridsnaponopen" : 0,
						"toolbarvisible" : 1,
						"boxanimatetime" : 200,
						"imprint" : 0,
						"enablehscroll" : 1,
						"enablevscroll" : 1,
						"boxes" : [ 							{
								"box" : 								{
									"maxclass" : "button",
									"id" : "obj-28",
									"numinlets" : 1,
									"numoutlets" : 1,
									"hidden" : 1,
									"outlettype" : [ "bang" ],
									"patching_rect" : [ 50.0, 100.0, 20.0, 20.0 ]
								}

							}
, 							{
								"box" : 								{
									"maxclass" : "number",
									"id" : "obj-29",
									"numinlets" : 1,
									"fontname" : "Arial",
									"numoutlets" : 2,
									"triscale" : 0.9,
									"presentation_rect" : [ 15.0, 15.0, 50.0, 20.0 ],
									"hidden" : 1,
									"outlettype" : [ "int", "bang" ],
									"fontsize" : 11.595187,
									"patching_rect" : [ 139.667542, 125.400467, 50.0, 20.0 ]
								}

							}
, 							{
								"box" : 								{
									"maxclass" : "newobj",
									"text" : "adstatus driver",
									"id" : "obj-31",
									"numinlets" : 2,
									"fontname" : "Arial",
									"numoutlets" : 2,
									"hidden" : 1,
									"outlettype" : [ "", "int" ],
									"fontsize" : 11.595187,
									"patching_rect" : [ 50.0, 125.400467, 87.0, 20.0 ]
								}

							}
, 							{
								"box" : 								{
									"maxclass" : "comment",
									"text" : "report list of currently available audio drivers",
									"id" : "obj-44",
									"numinlets" : 1,
									"fontname" : "Arial",
									"numoutlets" : 0,
									"hidden" : 1,
									"fontsize" : 11.595187,
									"patching_rect" : [ 68.589615, 101.154572, 235.0, 20.0 ]
								}

							}
, 							{
								"box" : 								{
									"maxclass" : "comment",
									"text" : "choose a new audio driver",
									"id" : "obj-45",
									"numinlets" : 1,
									"fontname" : "Arial",
									"numoutlets" : 0,
									"hidden" : 1,
									"fontsize" : 11.595187,
									"patching_rect" : [ 185.997406, 152.264648, 144.0, 20.0 ]
								}

							}
, 							{
								"box" : 								{
									"maxclass" : "inlet",
									"id" : "obj-3",
									"numinlets" : 0,
									"numoutlets" : 1,
									"outlettype" : [ "int" ],
									"patching_rect" : [ 50.0, 40.0, 25.0, 25.0 ],
									"comment" : ""
								}

							}
, 							{
								"box" : 								{
									"maxclass" : "outlet",
									"id" : "obj-4",
									"numinlets" : 1,
									"numoutlets" : 0,
									"patching_rect" : [ 50.0, 232.264648, 25.0, 25.0 ],
									"comment" : ""
								}

							}
 ],
						"lines" : [ 							{
								"patchline" : 								{
									"source" : [ "obj-31", 0 ],
									"destination" : [ "obj-4", 0 ],
									"hidden" : 0,
									"midpoints" : [  ]
								}

							}
, 							{
								"patchline" : 								{
									"source" : [ "obj-3", 0 ],
									"destination" : [ "obj-31", 0 ],
									"hidden" : 0,
									"midpoints" : [  ]
								}

							}
, 							{
								"patchline" : 								{
									"source" : [ "obj-31", 1 ],
									"destination" : [ "obj-29", 0 ],
									"hidden" : 1,
									"midpoints" : [  ]
								}

							}
, 							{
								"patchline" : 								{
									"source" : [ "obj-28", 0 ],
									"destination" : [ "obj-31", 0 ],
									"hidden" : 1,
									"midpoints" : [  ]
								}

							}
 ]
					}
,
					"saved_object_attributes" : 					{
						"default_fontface" : 0,
						"default_fontname" : "Arial",
						"globalpatchername" : "",
						"fontname" : "Arial",
						"default_fontsize" : 12.0,
						"fontface" : 0,
						"fontsize" : 12.0
					}

				}

			}
, 			{
				"box" : 				{
					"maxclass" : "umenu",
					"id" : "obj-30",
					"numinlets" : 1,
					"fontname" : "Arial",
					"numoutlets" : 3,
					"outlettype" : [ "int", "", "" ],
					"items" : [ "None", ",", "CoreAudio", "Built-in Output", ",", "CoreAudio", "Soundflower (2ch)", ",", "CoreAudio", "Soundflower (16ch)", ",", "NonRealTime", ",", "ad_rewire" ],
					"fontsize" : 11.595187,
					"types" : [  ],
					"patching_rect" : [ 533.262329, 302.800934, 135.0, 20.0 ]
				}

			}
, 			{
				"box" : 				{
					"maxclass" : "newobj",
					"text" : "p params",
					"id" : "obj-5",
					"numinlets" : 0,
					"fontname" : "Arial",
					"numoutlets" : 0,
					"fontsize" : 12.0,
					"patching_rect" : [ 517.0, 39.0, 61.0, 20.0 ],
					"patcher" : 					{
						"fileversion" : 1,
						"rect" : [ 25.0, 69.0, 640.0, 480.0 ],
						"bglocked" : 0,
						"defrect" : [ 25.0, 69.0, 640.0, 480.0 ],
						"openrect" : [ 0.0, 0.0, 0.0, 0.0 ],
						"openinpresentation" : 0,
						"default_fontsize" : 12.0,
						"default_fontface" : 0,
						"default_fontname" : "Arial",
						"gridonopen" : 0,
						"gridsize" : [ 15.0, 15.0 ],
						"gridsnaponopen" : 0,
						"toolbarvisible" : 1,
						"boxanimatetime" : 200,
						"imprint" : 0,
						"enablehscroll" : 1,
						"enablevscroll" : 1,
						"boxes" : [ 							{
								"box" : 								{
									"maxclass" : "newobj",
									"text" : "loadmess 0.",
									"id" : "obj-7",
									"numinlets" : 1,
									"fontname" : "Arial",
									"numoutlets" : 1,
									"outlettype" : [ "" ],
									"fontsize" : 12.0,
									"patching_rect" : [ 118.0, 23.0, 75.0, 20.0 ]
								}

							}
, 							{
								"box" : 								{
									"maxclass" : "newobj",
									"text" : "r mastervolume",
									"id" : "obj-2",
									"numinlets" : 0,
									"fontname" : "Arial",
									"numoutlets" : 1,
									"outlettype" : [ "" ],
									"fontsize" : 12.0,
									"patching_rect" : [ 17.0, 23.0, 93.0, 20.0 ]
								}

							}
, 							{
								"box" : 								{
									"maxclass" : "message",
									"text" : "store mastervolume $1",
									"id" : "obj-4",
									"numinlets" : 2,
									"fontname" : "Arial",
									"numoutlets" : 1,
									"outlettype" : [ "" ],
									"fontsize" : 12.0,
									"patching_rect" : [ 17.0, 51.0, 133.0, 18.0 ]
								}

							}
, 							{
								"box" : 								{
									"maxclass" : "newobj",
									"text" : "coll params",
									"id" : "obj-1",
									"numinlets" : 1,
									"fontname" : "Arial",
									"numoutlets" : 4,
									"outlettype" : [ "", "", "", "" ],
									"fontsize" : 12.0,
									"patching_rect" : [ 17.0, 86.0, 72.0, 20.0 ],
									"saved_object_attributes" : 									{
										"embed" : 0
									}

								}

							}
 ],
						"lines" : [ 							{
								"patchline" : 								{
									"source" : [ "obj-4", 0 ],
									"destination" : [ "obj-1", 0 ],
									"hidden" : 0,
									"midpoints" : [  ]
								}

							}
, 							{
								"patchline" : 								{
									"source" : [ "obj-2", 0 ],
									"destination" : [ "obj-4", 0 ],
									"hidden" : 0,
									"midpoints" : [  ]
								}

							}
, 							{
								"patchline" : 								{
									"source" : [ "obj-7", 0 ],
									"destination" : [ "obj-4", 0 ],
									"hidden" : 0,
									"midpoints" : [  ]
								}

							}
 ]
					}
,
					"saved_object_attributes" : 					{
						"default_fontface" : 0,
						"default_fontname" : "Arial",
						"globalpatchername" : "",
						"fontname" : "Arial",
						"default_fontsize" : 12.0,
						"fontface" : 0,
						"fontsize" : 12.0
					}

				}

			}
, 			{
				"box" : 				{
					"maxclass" : "newobj",
					"text" : "p connections",
					"id" : "obj-7",
					"numinlets" : 0,
					"fontname" : "Arial",
					"numoutlets" : 1,
					"outlettype" : [ "" ],
					"fontsize" : 12.0,
					"patching_rect" : [ 576.0, 67.0, 85.0, 20.0 ],
					"patcher" : 					{
						"fileversion" : 1,
						"rect" : [ 25.0, 69.0, 640.0, 480.0 ],
						"bglocked" : 0,
						"defrect" : [ 25.0, 69.0, 640.0, 480.0 ],
						"openrect" : [ 0.0, 0.0, 0.0, 0.0 ],
						"openinpresentation" : 0,
						"default_fontsize" : 12.0,
						"default_fontface" : 0,
						"default_fontname" : "Arial",
						"gridonopen" : 0,
						"gridsize" : [ 15.0, 15.0 ],
						"gridsnaponopen" : 0,
						"toolbarvisible" : 1,
						"boxanimatetime" : 200,
						"imprint" : 0,
						"enablehscroll" : 1,
						"enablevscroll" : 1,
						"boxes" : [ 							{
								"box" : 								{
									"maxclass" : "newobj",
									"text" : "p disconnect",
									"id" : "obj-23",
									"numinlets" : 0,
									"fontname" : "Arial",
									"numoutlets" : 1,
									"outlettype" : [ "" ],
									"fontsize" : 12.0,
									"patching_rect" : [ 116.0, 100.0, 78.0, 20.0 ],
									"patcher" : 									{
										"fileversion" : 1,
										"rect" : [ 25.0, 69.0, 640.0, 480.0 ],
										"bglocked" : 0,
										"defrect" : [ 25.0, 69.0, 640.0, 480.0 ],
										"openrect" : [ 0.0, 0.0, 0.0, 0.0 ],
										"openinpresentation" : 0,
										"default_fontsize" : 12.0,
										"default_fontface" : 0,
										"default_fontname" : "Arial",
										"gridonopen" : 0,
										"gridsize" : [ 15.0, 15.0 ],
										"gridsnaponopen" : 0,
										"toolbarvisible" : 1,
										"boxanimatetime" : 200,
										"imprint" : 0,
										"enablehscroll" : 1,
										"enablevscroll" : 1,
										"boxes" : [ 											{
												"box" : 												{
													"maxclass" : "newobj",
													"text" : "r disconnect",
													"id" : "obj-22",
													"numinlets" : 0,
													"fontname" : "Arial",
													"numoutlets" : 1,
													"outlettype" : [ "" ],
													"fontsize" : 12.0,
													"patching_rect" : [ 50.0, 52.0, 75.0, 20.0 ]
												}

											}
, 											{
												"box" : 												{
													"maxclass" : "newobj",
													"text" : "unpack s i i i s",
													"id" : "obj-126",
													"numinlets" : 1,
													"fontname" : "Arial",
													"numoutlets" : 5,
													"outlettype" : [ "", "int", "int", "int", "" ],
													"fontsize" : 12.0,
													"patching_rect" : [ 242.0, 208.5, 86.0, 20.0 ]
												}

											}
, 											{
												"box" : 												{
													"maxclass" : "newobj",
													"text" : "pack s i i i s",
													"id" : "obj-125",
													"numinlets" : 5,
													"fontname" : "Arial",
													"numoutlets" : 1,
													"outlettype" : [ "" ],
													"fontsize" : 12.0,
													"patching_rect" : [ 242.0, 186.5, 73.0, 20.0 ]
												}

											}
, 											{
												"box" : 												{
													"maxclass" : "newobj",
													"text" : "unpack s i s i i",
													"id" : "obj-124",
													"numinlets" : 1,
													"fontname" : "Arial",
													"numoutlets" : 5,
													"outlettype" : [ "", "int", "", "int", "int" ],
													"fontsize" : 12.0,
													"patching_rect" : [ 242.0, 155.5, 86.0, 20.0 ]
												}

											}
, 											{
												"box" : 												{
													"maxclass" : "newobj",
													"text" : "t 0",
													"id" : "obj-119",
													"numinlets" : 1,
													"fontname" : "Arial",
													"numoutlets" : 1,
													"outlettype" : [ "int" ],
													"fontsize" : 12.0,
													"patching_rect" : [ 523.0, 277.5, 24.0, 20.0 ]
												}

											}
, 											{
												"box" : 												{
													"maxclass" : "newobj",
													"text" : "t 1",
													"id" : "obj-118",
													"numinlets" : 1,
													"fontname" : "Arial",
													"numoutlets" : 1,
													"outlettype" : [ "int" ],
													"fontsize" : 12.0,
													"patching_rect" : [ 475.0, 263.5, 24.0, 20.0 ]
												}

											}
, 											{
												"box" : 												{
													"maxclass" : "gswitch2",
													"id" : "obj-117",
													"numinlets" : 2,
													"numoutlets" : 2,
													"outlettype" : [ "", "" ],
													"int" : 1,
													"patching_rect" : [ 456.0, 296.5, 39.0, 32.0 ]
												}

											}
, 											{
												"box" : 												{
													"maxclass" : "newobj",
													"text" : "select source effect",
													"id" : "obj-111",
													"numinlets" : 1,
													"fontname" : "Arial",
													"numoutlets" : 3,
													"outlettype" : [ "bang", "bang", "" ],
													"fontsize" : 12.0,
													"patching_rect" : [ 475.0, 227.5, 114.0, 20.0 ]
												}

											}
, 											{
												"box" : 												{
													"maxclass" : "newobj",
													"text" : "sprintf script disconnect %s%d 0 %s%d %d",
													"id" : "obj-107",
													"numinlets" : 5,
													"fontname" : "Arial",
													"numoutlets" : 1,
													"outlettype" : [ "" ],
													"fontsize" : 12.0,
													"patching_rect" : [ 292.0, 367.5, 241.0, 20.0 ]
												}

											}
, 											{
												"box" : 												{
													"maxclass" : "newobj",
													"text" : "prepend controller",
													"id" : "obj-106",
													"numinlets" : 1,
													"fontname" : "Arial",
													"numoutlets" : 1,
													"outlettype" : [ "" ],
													"fontsize" : 12.0,
													"patching_rect" : [ 242.0, 115.5, 107.0, 20.0 ]
												}

											}
, 											{
												"box" : 												{
													"maxclass" : "newobj",
													"text" : "prepend effect",
													"id" : "obj-103",
													"numinlets" : 1,
													"fontname" : "Arial",
													"numoutlets" : 1,
													"outlettype" : [ "" ],
													"fontsize" : 12.0,
													"patching_rect" : [ 146.0, 115.5, 87.0, 20.0 ]
												}

											}
, 											{
												"box" : 												{
													"maxclass" : "newobj",
													"text" : "prepend source",
													"id" : "obj-102",
													"numinlets" : 1,
													"fontname" : "Arial",
													"numoutlets" : 1,
													"outlettype" : [ "" ],
													"fontsize" : 12.0,
													"patching_rect" : [ 50.0, 115.5, 94.0, 20.0 ]
												}

											}
, 											{
												"box" : 												{
													"maxclass" : "newobj",
													"text" : "route source effect controller",
													"id" : "obj-99",
													"numinlets" : 1,
													"fontname" : "Arial",
													"numoutlets" : 4,
													"outlettype" : [ "", "", "", "" ],
													"fontsize" : 12.0,
													"patching_rect" : [ 50.0, 80.5, 307.0, 20.0 ]
												}

											}
, 											{
												"box" : 												{
													"maxclass" : "newobj",
													"text" : "- 1",
													"id" : "obj-92",
													"numinlets" : 2,
													"fontname" : "Arial",
													"numoutlets" : 1,
													"outlettype" : [ "int" ],
													"fontsize" : 12.0,
													"patching_rect" : [ 514.0, 327.5, 32.5, 20.0 ]
												}

											}
, 											{
												"box" : 												{
													"maxclass" : "newobj",
													"text" : "unpack s i s i",
													"id" : "obj-16",
													"numinlets" : 1,
													"fontname" : "Arial",
													"numoutlets" : 4,
													"outlettype" : [ "", "int", "", "int" ],
													"fontsize" : 12.0,
													"patching_rect" : [ 50.0, 184.5, 80.0, 20.0 ]
												}

											}
, 											{
												"box" : 												{
													"maxclass" : "newobj",
													"text" : "sprintf script disconnect %s%d 0 %s%d 0",
													"id" : "obj-9",
													"numinlets" : 4,
													"fontname" : "Arial",
													"numoutlets" : 1,
													"outlettype" : [ "" ],
													"fontsize" : 12.0,
													"patching_rect" : [ 50.0, 367.5, 231.0, 20.0 ]
												}

											}
, 											{
												"box" : 												{
													"maxclass" : "outlet",
													"id" : "obj-20",
													"numinlets" : 1,
													"numoutlets" : 0,
													"patching_rect" : [ 49.5, 402.5, 25.0, 25.0 ],
													"comment" : ""
												}

											}
 ],
										"lines" : [ 											{
												"patchline" : 												{
													"source" : [ "obj-22", 0 ],
													"destination" : [ "obj-99", 0 ],
													"hidden" : 0,
													"midpoints" : [  ]
												}

											}
, 											{
												"patchline" : 												{
													"source" : [ "obj-124", 2 ],
													"destination" : [ "obj-125", 1 ],
													"hidden" : 0,
													"midpoints" : [  ]
												}

											}
, 											{
												"patchline" : 												{
													"source" : [ "obj-126", 2 ],
													"destination" : [ "obj-117", 1 ],
													"hidden" : 0,
													"midpoints" : [  ]
												}

											}
, 											{
												"patchline" : 												{
													"source" : [ "obj-126", 4 ],
													"destination" : [ "obj-111", 0 ],
													"hidden" : 0,
													"midpoints" : [  ]
												}

											}
, 											{
												"patchline" : 												{
													"source" : [ "obj-125", 0 ],
													"destination" : [ "obj-126", 0 ],
													"hidden" : 0,
													"midpoints" : [  ]
												}

											}
, 											{
												"patchline" : 												{
													"source" : [ "obj-124", 4 ],
													"destination" : [ "obj-125", 2 ],
													"hidden" : 0,
													"midpoints" : [  ]
												}

											}
, 											{
												"patchline" : 												{
													"source" : [ "obj-124", 2 ],
													"destination" : [ "obj-125", 4 ],
													"hidden" : 0,
													"midpoints" : [  ]
												}

											}
, 											{
												"patchline" : 												{
													"source" : [ "obj-124", 3 ],
													"destination" : [ "obj-125", 3 ],
													"hidden" : 0,
													"midpoints" : [  ]
												}

											}
, 											{
												"patchline" : 												{
													"source" : [ "obj-124", 0 ],
													"destination" : [ "obj-125", 0 ],
													"hidden" : 0,
													"midpoints" : [  ]
												}

											}
, 											{
												"patchline" : 												{
													"source" : [ "obj-124", 1 ],
													"destination" : [ "obj-125", 1 ],
													"hidden" : 0,
													"midpoints" : [  ]
												}

											}
, 											{
												"patchline" : 												{
													"source" : [ "obj-106", 0 ],
													"destination" : [ "obj-124", 0 ],
													"hidden" : 0,
													"midpoints" : [  ]
												}

											}
, 											{
												"patchline" : 												{
													"source" : [ "obj-111", 1 ],
													"destination" : [ "obj-119", 0 ],
													"hidden" : 0,
													"midpoints" : [  ]
												}

											}
, 											{
												"patchline" : 												{
													"source" : [ "obj-119", 0 ],
													"destination" : [ "obj-117", 0 ],
													"hidden" : 0,
													"midpoints" : [  ]
												}

											}
, 											{
												"patchline" : 												{
													"source" : [ "obj-111", 0 ],
													"destination" : [ "obj-118", 0 ],
													"hidden" : 0,
													"midpoints" : [  ]
												}

											}
, 											{
												"patchline" : 												{
													"source" : [ "obj-118", 0 ],
													"destination" : [ "obj-117", 0 ],
													"hidden" : 0,
													"midpoints" : [  ]
												}

											}
, 											{
												"patchline" : 												{
													"source" : [ "obj-117", 1 ],
													"destination" : [ "obj-92", 0 ],
													"hidden" : 0,
													"midpoints" : [  ]
												}

											}
, 											{
												"patchline" : 												{
													"source" : [ "obj-99", 2 ],
													"destination" : [ "obj-106", 0 ],
													"hidden" : 0,
													"midpoints" : [  ]
												}

											}
, 											{
												"patchline" : 												{
													"source" : [ "obj-99", 0 ],
													"destination" : [ "obj-102", 0 ],
													"hidden" : 0,
													"midpoints" : [  ]
												}

											}
, 											{
												"patchline" : 												{
													"source" : [ "obj-99", 1 ],
													"destination" : [ "obj-103", 0 ],
													"hidden" : 0,
													"midpoints" : [  ]
												}

											}
, 											{
												"patchline" : 												{
													"source" : [ "obj-103", 0 ],
													"destination" : [ "obj-16", 0 ],
													"hidden" : 0,
													"midpoints" : [  ]
												}

											}
, 											{
												"patchline" : 												{
													"source" : [ "obj-102", 0 ],
													"destination" : [ "obj-16", 0 ],
													"hidden" : 0,
													"midpoints" : [  ]
												}

											}
, 											{
												"patchline" : 												{
													"source" : [ "obj-9", 0 ],
													"destination" : [ "obj-20", 0 ],
													"hidden" : 0,
													"midpoints" : [  ]
												}

											}
, 											{
												"patchline" : 												{
													"source" : [ "obj-16", 2 ],
													"destination" : [ "obj-9", 2 ],
													"hidden" : 0,
													"midpoints" : [  ]
												}

											}
, 											{
												"patchline" : 												{
													"source" : [ "obj-16", 1 ],
													"destination" : [ "obj-9", 1 ],
													"hidden" : 0,
													"midpoints" : [  ]
												}

											}
, 											{
												"patchline" : 												{
													"source" : [ "obj-16", 0 ],
													"destination" : [ "obj-9", 0 ],
													"hidden" : 0,
													"midpoints" : [  ]
												}

											}
, 											{
												"patchline" : 												{
													"source" : [ "obj-16", 3 ],
													"destination" : [ "obj-9", 3 ],
													"hidden" : 0,
													"midpoints" : [  ]
												}

											}
, 											{
												"patchline" : 												{
													"source" : [ "obj-107", 0 ],
													"destination" : [ "obj-20", 0 ],
													"hidden" : 0,
													"midpoints" : [  ]
												}

											}
, 											{
												"patchline" : 												{
													"source" : [ "obj-92", 0 ],
													"destination" : [ "obj-107", 4 ],
													"hidden" : 0,
													"midpoints" : [  ]
												}

											}
, 											{
												"patchline" : 												{
													"source" : [ "obj-117", 0 ],
													"destination" : [ "obj-107", 4 ],
													"hidden" : 0,
													"midpoints" : [  ]
												}

											}
, 											{
												"patchline" : 												{
													"source" : [ "obj-126", 0 ],
													"destination" : [ "obj-107", 0 ],
													"hidden" : 0,
													"midpoints" : [  ]
												}

											}
, 											{
												"patchline" : 												{
													"source" : [ "obj-126", 1 ],
													"destination" : [ "obj-107", 1 ],
													"hidden" : 0,
													"midpoints" : [  ]
												}

											}
, 											{
												"patchline" : 												{
													"source" : [ "obj-126", 4 ],
													"destination" : [ "obj-107", 2 ],
													"hidden" : 0,
													"midpoints" : [  ]
												}

											}
, 											{
												"patchline" : 												{
													"source" : [ "obj-126", 3 ],
													"destination" : [ "obj-107", 3 ],
													"hidden" : 0,
													"midpoints" : [  ]
												}

											}
 ]
									}
,
									"saved_object_attributes" : 									{
										"default_fontface" : 0,
										"default_fontname" : "Arial",
										"globalpatchername" : "",
										"fontname" : "Arial",
										"default_fontsize" : 12.0,
										"fontface" : 0,
										"fontsize" : 12.0
									}

								}

							}
, 							{
								"box" : 								{
									"maxclass" : "newobj",
									"text" : "p connect",
									"id" : "obj-21",
									"numinlets" : 0,
									"fontname" : "Arial",
									"numoutlets" : 1,
									"outlettype" : [ "" ],
									"fontsize" : 12.0,
									"patching_rect" : [ 50.0, 100.0, 63.0, 20.0 ],
									"patcher" : 									{
										"fileversion" : 1,
										"rect" : [ 235.0, 257.0, 640.0, 480.0 ],
										"bglocked" : 0,
										"defrect" : [ 235.0, 257.0, 640.0, 480.0 ],
										"openrect" : [ 0.0, 0.0, 0.0, 0.0 ],
										"openinpresentation" : 0,
										"default_fontsize" : 12.0,
										"default_fontface" : 0,
										"default_fontname" : "Arial",
										"gridonopen" : 0,
										"gridsize" : [ 15.0, 15.0 ],
										"gridsnaponopen" : 0,
										"toolbarvisible" : 1,
										"boxanimatetime" : 200,
										"imprint" : 0,
										"enablehscroll" : 1,
										"enablevscroll" : 1,
										"boxes" : [ 											{
												"box" : 												{
													"maxclass" : "newobj",
													"text" : "r connect",
													"id" : "obj-1",
													"numinlets" : 0,
													"fontname" : "Arial",
													"numoutlets" : 1,
													"outlettype" : [ "" ],
													"fontsize" : 12.0,
													"patching_rect" : [ 50.0, 52.0, 60.0, 20.0 ]
												}

											}
, 											{
												"box" : 												{
													"maxclass" : "newobj",
													"text" : "unpack s i i i s",
													"id" : "obj-126",
													"numinlets" : 1,
													"fontname" : "Arial",
													"numoutlets" : 5,
													"outlettype" : [ "", "int", "int", "int", "" ],
													"fontsize" : 12.0,
													"patching_rect" : [ 242.0, 208.5, 86.0, 20.0 ]
												}

											}
, 											{
												"box" : 												{
													"maxclass" : "newobj",
													"text" : "pack s i i i s",
													"id" : "obj-125",
													"numinlets" : 5,
													"fontname" : "Arial",
													"numoutlets" : 1,
													"outlettype" : [ "" ],
													"fontsize" : 12.0,
													"patching_rect" : [ 242.0, 186.5, 73.0, 20.0 ]
												}

											}
, 											{
												"box" : 												{
													"maxclass" : "newobj",
													"text" : "unpack s i s i i",
													"id" : "obj-124",
													"numinlets" : 1,
													"fontname" : "Arial",
													"numoutlets" : 5,
													"outlettype" : [ "", "int", "", "int", "int" ],
													"fontsize" : 12.0,
													"patching_rect" : [ 242.0, 155.5, 86.0, 20.0 ]
												}

											}
, 											{
												"box" : 												{
													"maxclass" : "newobj",
													"text" : "t 0",
													"id" : "obj-119",
													"numinlets" : 1,
													"fontname" : "Arial",
													"numoutlets" : 1,
													"outlettype" : [ "int" ],
													"fontsize" : 12.0,
													"patching_rect" : [ 523.0, 277.5, 24.0, 20.0 ]
												}

											}
, 											{
												"box" : 												{
													"maxclass" : "newobj",
													"text" : "t 1",
													"id" : "obj-118",
													"numinlets" : 1,
													"fontname" : "Arial",
													"numoutlets" : 1,
													"outlettype" : [ "int" ],
													"fontsize" : 12.0,
													"patching_rect" : [ 475.0, 263.5, 24.0, 20.0 ]
												}

											}
, 											{
												"box" : 												{
													"maxclass" : "gswitch2",
													"id" : "obj-117",
													"numinlets" : 2,
													"numoutlets" : 2,
													"outlettype" : [ "", "" ],
													"patching_rect" : [ 456.0, 296.5, 39.0, 32.0 ]
												}

											}
, 											{
												"box" : 												{
													"maxclass" : "newobj",
													"text" : "select source effect",
													"id" : "obj-111",
													"numinlets" : 1,
													"fontname" : "Arial",
													"numoutlets" : 3,
													"outlettype" : [ "bang", "bang", "" ],
													"fontsize" : 12.0,
													"patching_rect" : [ 475.0, 227.5, 114.0, 20.0 ]
												}

											}
, 											{
												"box" : 												{
													"maxclass" : "newobj",
													"text" : "sprintf script connect %s%d 0 %s%d %d",
													"id" : "obj-107",
													"numinlets" : 5,
													"fontname" : "Arial",
													"numoutlets" : 1,
													"outlettype" : [ "" ],
													"fontsize" : 12.0,
													"patching_rect" : [ 275.0, 367.5, 226.0, 20.0 ]
												}

											}
, 											{
												"box" : 												{
													"maxclass" : "newobj",
													"text" : "prepend controller",
													"id" : "obj-106",
													"numinlets" : 1,
													"fontname" : "Arial",
													"numoutlets" : 1,
													"outlettype" : [ "" ],
													"fontsize" : 12.0,
													"patching_rect" : [ 242.0, 115.5, 107.0, 20.0 ]
												}

											}
, 											{
												"box" : 												{
													"maxclass" : "newobj",
													"text" : "prepend effect",
													"id" : "obj-103",
													"numinlets" : 1,
													"fontname" : "Arial",
													"numoutlets" : 1,
													"outlettype" : [ "" ],
													"fontsize" : 12.0,
													"patching_rect" : [ 146.0, 115.5, 87.0, 20.0 ]
												}

											}
, 											{
												"box" : 												{
													"maxclass" : "newobj",
													"text" : "prepend source",
													"id" : "obj-102",
													"numinlets" : 1,
													"fontname" : "Arial",
													"numoutlets" : 1,
													"outlettype" : [ "" ],
													"fontsize" : 12.0,
													"patching_rect" : [ 50.0, 115.5, 94.0, 20.0 ]
												}

											}
, 											{
												"box" : 												{
													"maxclass" : "newobj",
													"text" : "route source effect controller",
													"id" : "obj-99",
													"numinlets" : 1,
													"fontname" : "Arial",
													"numoutlets" : 4,
													"outlettype" : [ "", "", "", "" ],
													"fontsize" : 12.0,
													"patching_rect" : [ 50.0, 80.5, 307.0, 20.0 ]
												}

											}
, 											{
												"box" : 												{
													"maxclass" : "newobj",
													"text" : "- 1",
													"id" : "obj-92",
													"numinlets" : 2,
													"fontname" : "Arial",
													"numoutlets" : 1,
													"outlettype" : [ "int" ],
													"fontsize" : 12.0,
													"patching_rect" : [ 504.0, 327.5, 32.5, 20.0 ]
												}

											}
, 											{
												"box" : 												{
													"maxclass" : "newobj",
													"text" : "unpack s i s i",
													"id" : "obj-16",
													"numinlets" : 1,
													"fontname" : "Arial",
													"numoutlets" : 4,
													"outlettype" : [ "", "int", "", "int" ],
													"fontsize" : 12.0,
													"patching_rect" : [ 50.0, 184.5, 80.0, 20.0 ]
												}

											}
, 											{
												"box" : 												{
													"maxclass" : "newobj",
													"text" : "sprintf script connect %s%d 0 %s%d 0",
													"id" : "obj-9",
													"numinlets" : 4,
													"fontname" : "Arial",
													"numoutlets" : 1,
													"outlettype" : [ "" ],
													"fontsize" : 12.0,
													"patching_rect" : [ 50.0, 367.5, 215.0, 20.0 ]
												}

											}
, 											{
												"box" : 												{
													"maxclass" : "outlet",
													"id" : "obj-20",
													"numinlets" : 1,
													"numoutlets" : 0,
													"patching_rect" : [ 49.5, 402.5, 25.0, 25.0 ],
													"comment" : ""
												}

											}
 ],
										"lines" : [ 											{
												"patchline" : 												{
													"source" : [ "obj-1", 0 ],
													"destination" : [ "obj-99", 0 ],
													"hidden" : 0,
													"midpoints" : [  ]
												}

											}
, 											{
												"patchline" : 												{
													"source" : [ "obj-107", 0 ],
													"destination" : [ "obj-20", 0 ],
													"hidden" : 0,
													"midpoints" : [  ]
												}

											}
, 											{
												"patchline" : 												{
													"source" : [ "obj-9", 0 ],
													"destination" : [ "obj-20", 0 ],
													"hidden" : 0,
													"midpoints" : [  ]
												}

											}
, 											{
												"patchline" : 												{
													"source" : [ "obj-16", 2 ],
													"destination" : [ "obj-9", 2 ],
													"hidden" : 0,
													"midpoints" : [  ]
												}

											}
, 											{
												"patchline" : 												{
													"source" : [ "obj-16", 1 ],
													"destination" : [ "obj-9", 1 ],
													"hidden" : 0,
													"midpoints" : [  ]
												}

											}
, 											{
												"patchline" : 												{
													"source" : [ "obj-16", 0 ],
													"destination" : [ "obj-9", 0 ],
													"hidden" : 0,
													"midpoints" : [  ]
												}

											}
, 											{
												"patchline" : 												{
													"source" : [ "obj-16", 3 ],
													"destination" : [ "obj-9", 3 ],
													"hidden" : 0,
													"midpoints" : [  ]
												}

											}
, 											{
												"patchline" : 												{
													"source" : [ "obj-102", 0 ],
													"destination" : [ "obj-16", 0 ],
													"hidden" : 0,
													"midpoints" : [  ]
												}

											}
, 											{
												"patchline" : 												{
													"source" : [ "obj-103", 0 ],
													"destination" : [ "obj-16", 0 ],
													"hidden" : 0,
													"midpoints" : [  ]
												}

											}
, 											{
												"patchline" : 												{
													"source" : [ "obj-99", 1 ],
													"destination" : [ "obj-103", 0 ],
													"hidden" : 0,
													"midpoints" : [  ]
												}

											}
, 											{
												"patchline" : 												{
													"source" : [ "obj-99", 0 ],
													"destination" : [ "obj-102", 0 ],
													"hidden" : 0,
													"midpoints" : [  ]
												}

											}
, 											{
												"patchline" : 												{
													"source" : [ "obj-99", 2 ],
													"destination" : [ "obj-106", 0 ],
													"hidden" : 0,
													"midpoints" : [  ]
												}

											}
, 											{
												"patchline" : 												{
													"source" : [ "obj-92", 0 ],
													"destination" : [ "obj-107", 4 ],
													"hidden" : 0,
													"midpoints" : [  ]
												}

											}
, 											{
												"patchline" : 												{
													"source" : [ "obj-117", 1 ],
													"destination" : [ "obj-92", 0 ],
													"hidden" : 0,
													"midpoints" : [  ]
												}

											}
, 											{
												"patchline" : 												{
													"source" : [ "obj-117", 0 ],
													"destination" : [ "obj-107", 4 ],
													"hidden" : 0,
													"midpoints" : [  ]
												}

											}
, 											{
												"patchline" : 												{
													"source" : [ "obj-118", 0 ],
													"destination" : [ "obj-117", 0 ],
													"hidden" : 0,
													"midpoints" : [  ]
												}

											}
, 											{
												"patchline" : 												{
													"source" : [ "obj-111", 0 ],
													"destination" : [ "obj-118", 0 ],
													"hidden" : 0,
													"midpoints" : [  ]
												}

											}
, 											{
												"patchline" : 												{
													"source" : [ "obj-119", 0 ],
													"destination" : [ "obj-117", 0 ],
													"hidden" : 0,
													"midpoints" : [  ]
												}

											}
, 											{
												"patchline" : 												{
													"source" : [ "obj-111", 1 ],
													"destination" : [ "obj-119", 0 ],
													"hidden" : 0,
													"midpoints" : [  ]
												}

											}
, 											{
												"patchline" : 												{
													"source" : [ "obj-106", 0 ],
													"destination" : [ "obj-124", 0 ],
													"hidden" : 0,
													"midpoints" : [  ]
												}

											}
, 											{
												"patchline" : 												{
													"source" : [ "obj-124", 1 ],
													"destination" : [ "obj-125", 1 ],
													"hidden" : 0,
													"midpoints" : [  ]
												}

											}
, 											{
												"patchline" : 												{
													"source" : [ "obj-124", 0 ],
													"destination" : [ "obj-125", 0 ],
													"hidden" : 0,
													"midpoints" : [  ]
												}

											}
, 											{
												"patchline" : 												{
													"source" : [ "obj-124", 3 ],
													"destination" : [ "obj-125", 3 ],
													"hidden" : 0,
													"midpoints" : [  ]
												}

											}
, 											{
												"patchline" : 												{
													"source" : [ "obj-124", 2 ],
													"destination" : [ "obj-125", 4 ],
													"hidden" : 0,
													"midpoints" : [  ]
												}

											}
, 											{
												"patchline" : 												{
													"source" : [ "obj-124", 4 ],
													"destination" : [ "obj-125", 2 ],
													"hidden" : 0,
													"midpoints" : [  ]
												}

											}
, 											{
												"patchline" : 												{
													"source" : [ "obj-125", 0 ],
													"destination" : [ "obj-126", 0 ],
													"hidden" : 0,
													"midpoints" : [  ]
												}

											}
, 											{
												"patchline" : 												{
													"source" : [ "obj-126", 4 ],
													"destination" : [ "obj-111", 0 ],
													"hidden" : 0,
													"midpoints" : [  ]
												}

											}
, 											{
												"patchline" : 												{
													"source" : [ "obj-126", 0 ],
													"destination" : [ "obj-107", 0 ],
													"hidden" : 0,
													"midpoints" : [  ]
												}

											}
, 											{
												"patchline" : 												{
													"source" : [ "obj-126", 1 ],
													"destination" : [ "obj-107", 1 ],
													"hidden" : 0,
													"midpoints" : [  ]
												}

											}
, 											{
												"patchline" : 												{
													"source" : [ "obj-126", 2 ],
													"destination" : [ "obj-117", 1 ],
													"hidden" : 0,
													"midpoints" : [  ]
												}

											}
, 											{
												"patchline" : 												{
													"source" : [ "obj-126", 4 ],
													"destination" : [ "obj-107", 2 ],
													"hidden" : 0,
													"midpoints" : [  ]
												}

											}
, 											{
												"patchline" : 												{
													"source" : [ "obj-126", 3 ],
													"destination" : [ "obj-107", 3 ],
													"hidden" : 0,
													"midpoints" : [  ]
												}

											}
, 											{
												"patchline" : 												{
													"source" : [ "obj-124", 2 ],
													"destination" : [ "obj-125", 1 ],
													"hidden" : 0,
													"midpoints" : [  ]
												}

											}
 ]
									}
,
									"saved_object_attributes" : 									{
										"default_fontface" : 0,
										"default_fontname" : "Arial",
										"globalpatchername" : "",
										"fontname" : "Arial",
										"default_fontsize" : 12.0,
										"fontface" : 0,
										"fontsize" : 12.0
									}

								}

							}
, 							{
								"box" : 								{
									"maxclass" : "outlet",
									"id" : "obj-5",
									"numinlets" : 1,
									"numoutlets" : 0,
									"patching_rect" : [ 78.0, 180.0, 25.0, 25.0 ],
									"comment" : ""
								}

							}
 ],
						"lines" : [ 							{
								"patchline" : 								{
									"source" : [ "obj-23", 0 ],
									"destination" : [ "obj-5", 0 ],
									"hidden" : 0,
									"midpoints" : [  ]
								}

							}
, 							{
								"patchline" : 								{
									"source" : [ "obj-21", 0 ],
									"destination" : [ "obj-5", 0 ],
									"hidden" : 0,
									"midpoints" : [  ]
								}

							}
 ]
					}
,
					"saved_object_attributes" : 					{
						"default_fontface" : 0,
						"default_fontname" : "Arial",
						"globalpatchername" : "",
						"fontname" : "Arial",
						"default_fontsize" : 12.0,
						"fontface" : 0,
						"fontsize" : 12.0
					}

				}

			}
, 			{
				"box" : 				{
					"maxclass" : "newobj",
					"text" : "p osc",
					"id" : "obj-20",
					"numinlets" : 0,
					"fontname" : "Arial",
					"numoutlets" : 0,
					"fontsize" : 12.0,
					"patching_rect" : [ 465.0, 39.0, 39.0, 20.0 ],
					"patcher" : 					{
						"fileversion" : 1,
						"rect" : [ 640.0, 74.0, 546.0, 277.0 ],
						"bglocked" : 0,
						"defrect" : [ 640.0, 74.0, 546.0, 277.0 ],
						"openrect" : [ 0.0, 0.0, 0.0, 0.0 ],
						"openinpresentation" : 0,
						"default_fontsize" : 12.0,
						"default_fontface" : 0,
						"default_fontname" : "Arial",
						"gridonopen" : 0,
						"gridsize" : [ 15.0, 15.0 ],
						"gridsnaponopen" : 0,
						"toolbarvisible" : 1,
						"boxanimatetime" : 200,
						"imprint" : 0,
						"enablehscroll" : 1,
						"enablevscroll" : 1,
						"boxes" : [ 							{
								"box" : 								{
									"maxclass" : "newobj",
									"text" : "s delete",
									"id" : "obj-7",
									"numinlets" : 1,
									"fontname" : "Arial",
									"numoutlets" : 0,
									"fontsize" : 12.0,
									"patching_rect" : [ 430.0, 172.0, 53.0, 20.0 ]
								}

							}
, 							{
								"box" : 								{
									"maxclass" : "newobj",
									"text" : "s create",
									"id" : "obj-8",
									"numinlets" : 1,
									"fontname" : "Arial",
									"numoutlets" : 0,
									"fontsize" : 12.0,
									"patching_rect" : [ 374.0, 172.0, 53.0, 20.0 ]
								}

							}
, 							{
								"box" : 								{
									"maxclass" : "newobj",
									"text" : "route /create /delete",
									"id" : "obj-6",
									"numinlets" : 1,
									"fontname" : "Arial",
									"numoutlets" : 3,
									"outlettype" : [ "", "", "" ],
									"fontsize" : 12.0,
									"patching_rect" : [ 374.0, 141.0, 130.0, 20.0 ]
								}

							}
, 							{
								"box" : 								{
									"maxclass" : "newobj",
									"text" : "s dspactive",
									"id" : "obj-5",
									"numinlets" : 1,
									"fontname" : "Arial",
									"numoutlets" : 0,
									"fontsize" : 12.0,
									"patching_rect" : [ 273.0, 141.0, 71.0, 20.0 ]
								}

							}
, 							{
								"box" : 								{
									"maxclass" : "newobj",
									"text" : "route /master/volume /master/dspactive",
									"id" : "obj-4",
									"numinlets" : 1,
									"fontname" : "Arial",
									"numoutlets" : 3,
									"outlettype" : [ "", "", "" ],
									"fontsize" : 12.0,
									"patching_rect" : [ 172.0, 109.0, 221.0, 20.0 ]
								}

							}
, 							{
								"box" : 								{
									"maxclass" : "newobj",
									"text" : "s mastervolume",
									"id" : "obj-3",
									"numinlets" : 1,
									"fontname" : "Arial",
									"numoutlets" : 0,
									"fontsize" : 12.0,
									"patching_rect" : [ 172.0, 141.0, 95.0, 20.0 ]
								}

							}
, 							{
								"box" : 								{
									"maxclass" : "newobj",
									"text" : "s disconnect",
									"id" : "obj-2",
									"numinlets" : 1,
									"fontname" : "Arial",
									"numoutlets" : 0,
									"fontsize" : 12.0,
									"patching_rect" : [ 97.0, 85.0, 77.0, 20.0 ]
								}

							}
, 							{
								"box" : 								{
									"maxclass" : "newobj",
									"text" : "s connect",
									"id" : "obj-1",
									"numinlets" : 1,
									"fontname" : "Arial",
									"numoutlets" : 0,
									"fontsize" : 12.0,
									"patching_rect" : [ 21.0, 85.0, 62.0, 20.0 ]
								}

							}
, 							{
								"box" : 								{
									"maxclass" : "newobj",
									"text" : "route /connect /disconnect",
									"id" : "obj-13",
									"numinlets" : 1,
									"fontname" : "Arial",
									"numoutlets" : 3,
									"outlettype" : [ "", "", "" ],
									"fontsize" : 12.0,
									"patching_rect" : [ 21.0, 51.0, 170.0, 20.0 ]
								}

							}
, 							{
								"box" : 								{
									"maxclass" : "newobj",
									"text" : "udpreceive 4444",
									"id" : "obj-12",
									"numinlets" : 1,
									"fontname" : "Arial",
									"numoutlets" : 1,
									"outlettype" : [ "" ],
									"fontsize" : 12.0,
									"patching_rect" : [ 21.0, 22.0, 99.0, 20.0 ]
								}

							}
 ],
						"lines" : [ 							{
								"patchline" : 								{
									"source" : [ "obj-4", 1 ],
									"destination" : [ "obj-5", 0 ],
									"hidden" : 0,
									"midpoints" : [  ]
								}

							}
, 							{
								"patchline" : 								{
									"source" : [ "obj-4", 0 ],
									"destination" : [ "obj-3", 0 ],
									"hidden" : 0,
									"midpoints" : [  ]
								}

							}
, 							{
								"patchline" : 								{
									"source" : [ "obj-13", 2 ],
									"destination" : [ "obj-4", 0 ],
									"hidden" : 0,
									"midpoints" : [  ]
								}

							}
, 							{
								"patchline" : 								{
									"source" : [ "obj-13", 1 ],
									"destination" : [ "obj-2", 0 ],
									"hidden" : 0,
									"midpoints" : [  ]
								}

							}
, 							{
								"patchline" : 								{
									"source" : [ "obj-13", 0 ],
									"destination" : [ "obj-1", 0 ],
									"hidden" : 0,
									"midpoints" : [  ]
								}

							}
, 							{
								"patchline" : 								{
									"source" : [ "obj-12", 0 ],
									"destination" : [ "obj-13", 0 ],
									"hidden" : 0,
									"midpoints" : [  ]
								}

							}
, 							{
								"patchline" : 								{
									"source" : [ "obj-4", 2 ],
									"destination" : [ "obj-6", 0 ],
									"hidden" : 0,
									"midpoints" : [  ]
								}

							}
, 							{
								"patchline" : 								{
									"source" : [ "obj-6", 0 ],
									"destination" : [ "obj-8", 0 ],
									"hidden" : 0,
									"midpoints" : [  ]
								}

							}
, 							{
								"patchline" : 								{
									"source" : [ "obj-6", 1 ],
									"destination" : [ "obj-7", 0 ],
									"hidden" : 0,
									"midpoints" : [  ]
								}

							}
 ]
					}
,
					"saved_object_attributes" : 					{
						"default_fontface" : 0,
						"default_fontname" : "Arial",
						"globalpatchername" : "",
						"fontname" : "Arial",
						"default_fontsize" : 12.0,
						"fontface" : 0,
						"fontsize" : 12.0
					}

				}

			}
, 			{
				"box" : 				{
					"maxclass" : "newobj",
					"text" : "p object_creation",
					"id" : "obj-34",
					"numinlets" : 0,
					"fontname" : "Arial",
					"numoutlets" : 1,
					"outlettype" : [ "" ],
					"fontsize" : 12.0,
					"patching_rect" : [ 465.0, 67.0, 102.0, 20.0 ],
					"patcher" : 					{
						"fileversion" : 1,
						"rect" : [ 530.0, 471.0, 849.0, 297.0 ],
						"bglocked" : 0,
						"defrect" : [ 530.0, 471.0, 849.0, 297.0 ],
						"openrect" : [ 0.0, 0.0, 0.0, 0.0 ],
						"openinpresentation" : 0,
						"default_fontsize" : 12.0,
						"default_fontface" : 0,
						"default_fontname" : "Arial",
						"gridonopen" : 0,
						"gridsize" : [ 15.0, 15.0 ],
						"gridsnaponopen" : 0,
						"toolbarvisible" : 1,
						"boxanimatetime" : 200,
						"imprint" : 0,
						"enablehscroll" : 1,
						"enablevscroll" : 1,
						"boxes" : [ 							{
								"box" : 								{
									"maxclass" : "newobj",
									"text" : "sprintf script delete output%d",
									"id" : "obj-9",
									"numinlets" : 1,
									"fontname" : "Arial",
									"numoutlets" : 1,
									"outlettype" : [ "" ],
									"fontsize" : 12.0,
									"patching_rect" : [ 636.0, 187.0, 165.0, 20.0 ]
								}

							}
, 							{
								"box" : 								{
									"maxclass" : "newobj",
									"text" : "counter",
									"id" : "obj-8",
									"numinlets" : 5,
									"fontname" : "Arial",
									"numoutlets" : 4,
									"outlettype" : [ "int", "", "", "int" ],
									"fontsize" : 12.0,
									"patching_rect" : [ 582.0, 75.0, 73.0, 20.0 ]
								}

							}
, 							{
								"box" : 								{
									"maxclass" : "newobj",
									"text" : "uzi 100",
									"id" : "obj-7",
									"numinlets" : 2,
									"fontname" : "Arial",
									"numoutlets" : 3,
									"outlettype" : [ "bang", "bang", "int" ],
									"fontsize" : 12.0,
									"patching_rect" : [ 582.0, 52.0, 49.0, 20.0 ]
								}

							}
, 							{
								"box" : 								{
									"maxclass" : "newobj",
									"text" : "loadbang",
									"id" : "obj-6",
									"numinlets" : 1,
									"fontname" : "Arial",
									"numoutlets" : 1,
									"outlettype" : [ "bang" ],
									"fontsize" : 12.0,
									"patching_rect" : [ 582.0, 27.0, 60.0, 20.0 ]
								}

							}
, 							{
								"box" : 								{
									"maxclass" : "newobj",
									"text" : "unpack s i",
									"id" : "obj-5",
									"numinlets" : 1,
									"fontname" : "Arial",
									"numoutlets" : 2,
									"outlettype" : [ "", "int" ],
									"fontsize" : 12.0,
									"patching_rect" : [ 105.0, 33.0, 65.0, 20.0 ]
								}

							}
, 							{
								"box" : 								{
									"maxclass" : "newobj",
									"text" : "r create",
									"id" : "obj-4",
									"numinlets" : 0,
									"fontname" : "Arial",
									"numoutlets" : 1,
									"outlettype" : [ "" ],
									"fontsize" : 12.0,
									"patching_rect" : [ 105.0, 7.0, 51.0, 20.0 ]
								}

							}
, 							{
								"box" : 								{
									"maxclass" : "newobj",
									"text" : "sprintf script delete controller%d",
									"id" : "obj-3",
									"numinlets" : 1,
									"fontname" : "Arial",
									"numoutlets" : 1,
									"outlettype" : [ "" ],
									"fontsize" : 12.0,
									"patching_rect" : [ 634.0, 160.0, 181.0, 20.0 ]
								}

							}
, 							{
								"box" : 								{
									"maxclass" : "newobj",
									"text" : "sprintf script delete effect%d",
									"id" : "obj-2",
									"numinlets" : 1,
									"fontname" : "Arial",
									"numoutlets" : 1,
									"outlettype" : [ "" ],
									"fontsize" : 12.0,
									"patching_rect" : [ 631.0, 134.0, 161.0, 20.0 ]
								}

							}
, 							{
								"box" : 								{
									"maxclass" : "newobj",
									"text" : "sprintf script delete source%d",
									"id" : "obj-1",
									"numinlets" : 1,
									"fontname" : "Arial",
									"numoutlets" : 1,
									"outlettype" : [ "" ],
									"fontsize" : 12.0,
									"patching_rect" : [ 627.0, 106.0, 168.0, 20.0 ]
								}

							}
, 							{
								"box" : 								{
									"maxclass" : "newobj",
									"text" : "sprintf script newobject newobj @text \\\"%s %d\\\" @fixwidth 1 @varname %s%d",
									"id" : "obj-18",
									"numinlets" : 4,
									"fontname" : "Arial",
									"numoutlets" : 1,
									"outlettype" : [ "" ],
									"fontsize" : 12.0,
									"patching_rect" : [ 50.0, 100.0, 430.0, 20.0 ]
								}

							}
, 							{
								"box" : 								{
									"maxclass" : "outlet",
									"id" : "obj-33",
									"numinlets" : 1,
									"numoutlets" : 0,
									"patching_rect" : [ 70.666656, 237.0, 25.0, 25.0 ],
									"comment" : ""
								}

							}
 ],
						"lines" : [ 							{
								"patchline" : 								{
									"source" : [ "obj-8", 0 ],
									"destination" : [ "obj-9", 0 ],
									"hidden" : 0,
									"midpoints" : [  ]
								}

							}
, 							{
								"patchline" : 								{
									"source" : [ "obj-8", 0 ],
									"destination" : [ "obj-3", 0 ],
									"hidden" : 0,
									"midpoints" : [  ]
								}

							}
, 							{
								"patchline" : 								{
									"source" : [ "obj-8", 0 ],
									"destination" : [ "obj-2", 0 ],
									"hidden" : 0,
									"midpoints" : [  ]
								}

							}
, 							{
								"patchline" : 								{
									"source" : [ "obj-8", 0 ],
									"destination" : [ "obj-1", 0 ],
									"hidden" : 0,
									"midpoints" : [  ]
								}

							}
, 							{
								"patchline" : 								{
									"source" : [ "obj-7", 0 ],
									"destination" : [ "obj-8", 0 ],
									"hidden" : 0,
									"midpoints" : [  ]
								}

							}
, 							{
								"patchline" : 								{
									"source" : [ "obj-6", 0 ],
									"destination" : [ "obj-7", 0 ],
									"hidden" : 0,
									"midpoints" : [  ]
								}

							}
, 							{
								"patchline" : 								{
									"source" : [ "obj-5", 0 ],
									"destination" : [ "obj-18", 0 ],
									"hidden" : 0,
									"midpoints" : [  ]
								}

							}
, 							{
								"patchline" : 								{
									"source" : [ "obj-5", 1 ],
									"destination" : [ "obj-18", 1 ],
									"hidden" : 0,
									"midpoints" : [  ]
								}

							}
, 							{
								"patchline" : 								{
									"source" : [ "obj-5", 0 ],
									"destination" : [ "obj-18", 2 ],
									"hidden" : 0,
									"midpoints" : [  ]
								}

							}
, 							{
								"patchline" : 								{
									"source" : [ "obj-5", 1 ],
									"destination" : [ "obj-18", 3 ],
									"hidden" : 0,
									"midpoints" : [  ]
								}

							}
, 							{
								"patchline" : 								{
									"source" : [ "obj-18", 0 ],
									"destination" : [ "obj-33", 0 ],
									"hidden" : 0,
									"midpoints" : [  ]
								}

							}
, 							{
								"patchline" : 								{
									"source" : [ "obj-4", 0 ],
									"destination" : [ "obj-5", 0 ],
									"hidden" : 0,
									"midpoints" : [  ]
								}

							}
, 							{
								"patchline" : 								{
									"source" : [ "obj-1", 0 ],
									"destination" : [ "obj-33", 0 ],
									"hidden" : 0,
									"midpoints" : [  ]
								}

							}
, 							{
								"patchline" : 								{
									"source" : [ "obj-2", 0 ],
									"destination" : [ "obj-33", 0 ],
									"hidden" : 0,
									"midpoints" : [  ]
								}

							}
, 							{
								"patchline" : 								{
									"source" : [ "obj-3", 0 ],
									"destination" : [ "obj-33", 0 ],
									"hidden" : 0,
									"midpoints" : [  ]
								}

							}
, 							{
								"patchline" : 								{
									"source" : [ "obj-9", 0 ],
									"destination" : [ "obj-33", 0 ],
									"hidden" : 0,
									"midpoints" : [  ]
								}

							}
 ]
					}
,
					"saved_object_attributes" : 					{
						"default_fontface" : 0,
						"default_fontname" : "Arial",
						"globalpatchername" : "",
						"fontname" : "Arial",
						"default_fontsize" : 12.0,
						"fontface" : 0,
						"fontsize" : 12.0
					}

				}

			}
, 			{
				"box" : 				{
					"maxclass" : "ezdac~",
					"id" : "obj-127",
					"numinlets" : 2,
					"numoutlets" : 0,
					"patching_rect" : [ 542.0, 211.0, 45.0, 45.0 ]
				}

			}
, 			{
				"box" : 				{
					"maxclass" : "newobj",
					"text" : "thispatcher",
					"id" : "obj-6",
					"numinlets" : 1,
					"fontname" : "Arial",
					"numoutlets" : 2,
					"outlettype" : [ "", "" ],
					"fontsize" : 12.0,
					"patching_rect" : [ 465.0, 118.0, 69.0, 20.0 ],
					"save" : [ "#N", "thispatcher", ";", "#Q", "end", ";" ]
				}

			}
, 			{
				"box" : 				{
					"maxclass" : "newobj",
					"varname" : "source1",
					"text" : "source 1",
					"id" : "obj-1",
					"numinlets" : 4,
					"fontname" : "Arial",
					"numoutlets" : 1,
					"outlettype" : [ "signal" ],
					"fontsize" : 12.0,
					"patching_rect" : [ 135.0, 85.0, 57.0, 20.0 ]
				}

			}
, 			{
				"box" : 				{
					"maxclass" : "newobj",
					"varname" : "output1",
					"text" : "output 1",
					"id" : "obj-2",
					"numinlets" : 1,
					"fontname" : "Arial",
					"numoutlets" : 0,
					"fontsize" : 12.0,
					"patching_rect" : [ 1.0, 0.0, 54.0, 20.0 ]
				}

			}
 ],
		"lines" : [ 			{
				"patchline" : 				{
					"source" : [ "obj-3", 0 ],
					"destination" : [ "obj-50", 0 ],
					"hidden" : 0,
					"midpoints" : [  ]
				}

			}
, 			{
				"patchline" : 				{
					"source" : [ "obj-34", 0 ],
					"destination" : [ "obj-6", 0 ],
					"hidden" : 0,
					"midpoints" : [  ]
				}

			}
, 			{
				"patchline" : 				{
					"source" : [ "obj-7", 0 ],
					"destination" : [ "obj-6", 0 ],
					"hidden" : 0,
					"midpoints" : [  ]
				}

			}
, 			{
				"patchline" : 				{
					"source" : [ "obj-8", 0 ],
					"destination" : [ "obj-30", 0 ],
					"hidden" : 1,
					"midpoints" : [  ]
				}

			}
, 			{
				"patchline" : 				{
					"source" : [ "obj-30", 0 ],
					"destination" : [ "obj-8", 0 ],
					"hidden" : 1,
					"midpoints" : [  ]
				}

			}
 ]
	}

}
